<svg width="286" height="640" viewBox="0 0 286 640" fill="none" xmlns="http://www.w3.org/2000/svg">
<g clip-path="url(#clip0_27_61)">
<path fill-rule="evenodd" clip-rule="evenodd" d="M118.869 188L108.952 212.142L115.758 289.072L58.8102 246.766L59.7789 226.101L54.2897 238.371C54.2897 238.371 23.2917 231.268 25.2288 232.882C27.1661 234.496 38.1443 239.34 38.1443 239.34L24.9056 243.538C24.9056 243.538 35.5611 242.569 33.6238 243.538C31.6864 244.506 22 249.672 22 249.672L34.9155 249.027L26.5202 253.87L46.2167 256.776L117.253 317.157L130.815 315.543L139.21 289.065L118.869 188Z" fill="#FFB380"/>
<path fill-rule="evenodd" clip-rule="evenodd" d="M264.287 0C247.987 25.5013 246.886 61.1512 214 75.8107L216.286 81.9061C250.499 67.3084 257.951 30.1738 274.573 0.76193L264.287 0Z" fill="#AED581"/>
<path fill-rule="evenodd" clip-rule="evenodd" d="M21.4007 214.448L49 243.814C40.6772 245.466 33.4842 251.386 27.8 263L1 231.676C6.38841 219.037 12.9482 212.116 21.4007 214.448Z" fill="#E6E6E6" stroke="#E6E6E6" stroke-width="1.14797"/>
<path fill-rule="evenodd" clip-rule="evenodd" d="M13 219.96C17.3072 209.864 25.6232 201.499 36.5738 202.023L59.546 229.019C52.1785 231.918 46.3042 239.428 43.8145 247.746L13 219.96Z" fill="#CCCCCC"/>
<path fill-rule="evenodd" clip-rule="evenodd" d="M148.401 359.673L139 441.625L140.537 514.684C142.749 527.392 146.943 536.126 152.806 541.513L218.026 639.654L237.398 636.124L198.252 522.734L190.906 516.098L208.551 439.475L202.895 405.683L203.762 358L148.401 359.673Z" fill="#212121"/>
<path fill-rule="evenodd" clip-rule="evenodd" d="M267.553 361L266.579 496.342L270.232 522.802L285.628 636.479L262.47 639.629L229.441 537.028L221.297 522.216L220.382 502.993L203.568 451.91L184 361.593L267.553 361Z" fill="#424242"/>
<path fill-rule="evenodd" clip-rule="evenodd" d="M129.905 170.244C137.535 176.809 146.131 177.903 154.822 178.46C168.03 172.164 178.854 163.687 179.606 146H183.916C182.323 164.672 173.535 175.529 155.227 182.097C145.396 181.324 138.209 184.038 126 173.073L129.905 170.244Z" fill="#33691E"/>
<path fill-rule="evenodd" clip-rule="evenodd" d="M82.4897 123.101C83.7988 128.697 85.3064 134.406 87.6008 140.564C89.2021 142.154 93.2705 142.242 93.3508 143.758C93.5868 150.078 95.7268 157.196 96.7582 161.434C100.023 161.221 101.086 158.806 102.934 157.175L108.049 162.161L110.033 163.024L110.75 165.646C115.276 166.361 115.692 170.055 117.789 172.809C128.373 169.911 134.596 160.051 133.782 155.143L135.246 165.896L115.286 182.518L115.499 199.342L133.814 209.564L167.675 198.916L188.545 170.378L196.996 149.797C175.275 148.359 165.77 134.813 157.665 126.295L146.379 109.046L136.796 93.5L121.889 82C121.889 82 102.509 85.1944 101.658 85.6204C100.806 86.0463 86.3241 95.4166 86.3241 95.4166L81 109.685L82.4897 123.101Z" fill="#FFB380"/>
<path fill-rule="evenodd" clip-rule="evenodd" d="M130.538 136.33L130.989 145.817C123.949 134.238 115.742 124.217 106.293 115.851L81.8352 124.694C73.9895 121.245 66.6423 117.299 60 112.646L69.9388 107.526H65.5717C76.4456 98.3945 87.617 89.7746 101.261 85.3905C101.261 85.3905 92.527 80.7224 93.1294 80.8729C109.393 78.3129 120.686 82.0776 120.686 82.0776C122.423 79.3692 125.378 77.148 128.517 75L127.161 77.7106L141.919 77.2588L130.775 80.8728C138.059 82.217 146.131 91.8971 150.05 100.298L147.34 100.901C156.293 113.717 162.314 127.999 169.778 141.559H157.73L137.702 125.747C136.092 124.366 131.458 117.544 127.073 123.681C127.073 124.283 130.538 136.33 130.538 136.33Z" fill="#333333"/>
<path fill-rule="evenodd" clip-rule="evenodd" d="M63.5401 249.588L86.4355 265.218L112.145 279.456L105.427 210.95C105.427 210.95 116.387 181.186 116.064 186.676C115.741 192.165 154.562 301.857 154.562 301.857C152.422 319.787 132.291 314.906 114.772 317.449L60 274.083L63.5401 249.588Z" fill="#33691E"/>
<path fill-rule="evenodd" clip-rule="evenodd" d="M247.191 216.19C247.191 216.19 260.906 319.431 260.525 316.764C260.144 314.097 227 212 227 212L247.191 216.19Z" fill="#558B2F"/>
<path fill-rule="evenodd" clip-rule="evenodd" d="M214 160.828C217.797 160.516 226.217 156 226.217 156L237.004 157.023L249.811 163.996C253.981 175.183 256.129 184.656 258.007 193.9C257.847 201.18 257.496 208.353 255.108 214.398C252.799 219.958 248.463 223.456 242.221 225.015C236.09 223.616 233.341 221.068 229.857 218.77L222.938 209.019L214 160.828Z" fill="#33691E"/>
<path fill-rule="evenodd" clip-rule="evenodd" d="M136.907 367.688C202.067 393.247 221.983 370.212 270.553 364.885C257.292 289.296 235.335 242.472 218.269 166.588C216.837 160.22 227.249 162.029 225.894 155.219L182.041 146C179.904 160.354 179.743 166.126 157.171 178.166C146.404 177.556 137.204 175.641 132.499 169.98L115.372 182.075C111.113 274.012 144.997 310.301 136.906 367.689L136.907 367.688Z" fill="#558B2F"/>
<path fill-rule="evenodd" clip-rule="evenodd" d="M270.561 204.629C266.779 208.805 267.227 210.058 262.565 211.439C236.152 214.941 237.298 140.762 225.356 103.469C223.433 105.169 213.906 95.7069 216.216 87.1631C215.033 82.006 213.125 75.8349 214.45 69.9542C216.433 65.2117 218.75 65.2367 221.409 70.1379C222.808 74.4847 222.569 78.6674 223.002 82.9168C223.759 81.8357 226.058 81.944 228.285 79.3417C229.692 76.0894 230.193 71.4391 230.673 66.7558L235.256 59.9299C232.97 58.6089 230.487 58.2599 227.932 58.2732L225.655 65.6377C223.497 66.3852 221.536 65.7656 219.825 63.4124L223.188 55.4385C224.804 53.7413 226.447 52.0608 229.07 51C232.755 51.2794 236.275 51.7924 239.34 52.9516C240.315 53.7979 241.282 54.7363 242.296 55.197L243.647 58.1024C242.372 60.73 242.012 62.833 241.736 64.888L243.3 71.8162L242.718 96.0749C250.224 129.433 264.809 152.195 274.715 184.336C274.214 191.973 273.934 199.21 270.561 204.625V204.629Z" fill="#FFB380"/>
</g>
<defs>
<clipPath id="clip0_27_61">
<rect width="286" height="640" fill="white"/>
</clipPath>
</defs>
</svg>
